<svg width="18" height="16" viewBox="0 0 18 16" fill="none" xmlns="http://www.w3.org/2000/svg">
<path d="M18 0.75C18 0.5625 17.9062 0.375 17.7812 0.21875C17.625 0.09375 17.4375 0 17.25 0H13.25C13.0312 0 12.8438 0.09375 12.7188 0.21875C12.5625 0.375 12.5 0.5625 12.5 0.75C12.5 0.96875 12.5625 1.15625 12.7188 1.28125L13.8438 2.40625L6.21875 10C6.0625 10.1562 6 10.3438 6 10.5312C6 10.75 6.0625 10.9375 6.21875 11.0625L6.9375 11.7812C7.0625 11.9375 7.25 12 7.46875 12C7.65625 12 7.84375 11.9375 8 11.7812L15.5938 4.15625L16.7188 5.28125C16.8438 5.4375 17.0312 5.5 17.25 5.5C17.4375 5.5 17.625 5.4375 17.7812 5.28125C17.9062 5.15625 18 4.96875 18 4.75V0.75ZM12.7188 8.46875C12.8438 8.3125 13.0312 8.25 13.25 8.25C13.4375 8.25 13.625 8.34375 13.7812 8.46875C13.9062 8.59375 14 8.78125 14 9V14.5C14 14.9375 13.8438 15.2812 13.5625 15.5625C13.25 15.875 12.9062 16 12.5 16H1.5C1.0625 16 0.71875 15.875 0.4375 15.5625C0.125 15.2812 0 14.9375 0 14.5V3.5C0 3.09375 0.125 2.75 0.4375 2.4375C0.71875 2.15625 1.0625 2 1.5 2H10.75C10.9375 2 11.125 2.09375 11.2812 2.21875C11.4062 2.375 11.5 2.5625 11.5 2.75C11.5 2.96875 11.4062 3.15625 11.2812 3.28125L10.7812 3.78125C10.625 3.9375 10.4375 4 10.25 4H2V14H12V9.5C12 9.3125 12.0625 9.125 12.2188 8.96875L12.7188 8.46875Z" fill="#28109A"/>
</svg>
